<?xml version="1.0" encoding="utf-8"?>
<!-- Generator: Adobe Illustrator 19.1.0, SVG Export Plug-In . SVG Version: 6.00 Build 0)  -->
<svg version="1.1"
	 id="Layer_1" xmlns:cc="http://creativecommons.org/ns#" xmlns:dc="http://purl.org/dc/elements/1.1/" xmlns:rdf="http://www.w3.org/1999/02/22-rdf-syntax-ns#" xmlns:inkscape="http://www.inkscape.org/namespaces/inkscape" xmlns:svg="http://www.w3.org/2000/svg" xmlns:sodipodi="http://sodipodi.sourceforge.net/DTD/sodipodi-0.dtd" inkscape:version="0.91 r13725" sodipodi:docname="flower-fun-mini.svg"
	 xmlns="http://www.w3.org/2000/svg" xmlns:xlink="http://www.w3.org/1999/xlink" x="0px" y="0px" viewBox="-221 200.8 517 160.2"
	 style="enable-background:new -221 200.8 517 160.2;" xml:space="preserve">
<style type="text/css">
	.st0{display:none;}
	.st1{display:inline;fill:#28E3E8;}
	.st2{display:inline;opacity:0.2;}
	.st3{fill:#FFFFFF;}
	.st4{display:inline;}
	.st5{fill:#00CCCC;}
	.st6{display:inline;fill:#00CCCC;}
	.st7{fill:none;stroke:#4ABC00;stroke-width:2;stroke-miterlimit:10;}
	.st8{fill:#4ABC00;}
	.st9{fill:#00C3F7;}
	.st10{fill:#FFE000;}
	.st11{fill:#FFB000;}
	.st12{fill:#F953D2;}
	.st13{fill:#DB8D03;}
	.st14{fill:#EF5133;}
	.st15{fill:none;stroke:#841708;stroke-width:2;stroke-miterlimit:10;}
</style>
<sodipodi:namedview  borderopacity="1" pagecolor="#ffffff" inkscape:cy="80.099998" showgrid="false" inkscape:cx="258.5" objecttolerance="10" guidetolerance="10" gridtolerance="10" inkscape:zoom="0.56286267" bordercolor="#666666" id="namedview191" inkscape:window-width="640" inkscape:window-maximized="0" inkscape:current-layer="Layer_1" inkscape:window-height="480" inkscape:window-x="0" inkscape:window-y="0" inkscape:pageshadow="2" inkscape:pageopacity="0">
	</sodipodi:namedview>
<g id="background" class="st0">
	<rect id="rect6" x="-1133" y="46.4" class="st1" width="1455" height="1209"/>
	<g id="g8" class="st2">
		<g id="g10">
			<g id="g12">
				<path id="path14" class="st3" d="M-1020.5,209.5c0.3-83,34-88.1,38.6-161.1l-90-1.2c-1.9,83-38.8,84.4-39.3,170.7
					c-0.4,88.1,38.1,88.7,37.7,176.8c-0.4,88.1-39,87.6-39.4,175.7c-0.4,88.2,38.1,88.7,37.7,176.9c-0.4,88.2-39,87.6-39.4,175.7
					c-0.4,88.2,38.1,88.7,37.7,176.9c-0.4,79.7-35.6,89.5-39.3,155.5h93.1c5.3-70.1,38.1-76.2,38.4-158c0.3-88.8-38.3-89.1-38-177.9
					s38.9-88.4,39.1-177.2c0.3-88.8-38.3-89.1-38-177.9c0.3-88.8,38.9-88.4,39.1-177.2C-982.2,298.6-1020.8,298.2-1020.5,209.5z"/>
			</g>
		</g>
		<g id="g16">
			<g id="g18">
				<path id="path20" class="st3" d="M-835,209.5c0.3-83,34-88.1,38.6-161.1l-90-1.2c-1.9,83-38.8,84.4-39.3,170.7
					c-0.4,88.1,38.1,88.7,37.7,176.8s-39,87.6-39.4,175.7c-0.4,88.2,38.1,88.7,37.7,176.9c-0.4,88.2-39,87.6-39.4,175.7
					c-0.4,88.2,38.1,88.7,37.7,176.9c-0.4,79.7-35.6,89.5-39.3,155.5h93.1c5.3-70.1,38.1-76.2,38.4-158c0.3-88.8-38.3-89.1-38-177.9
					s38.9-88.4,39.1-177.2c0.3-88.8-38.3-89.1-38-177.9s38.9-88.4,39.1-177.2C-796.7,298.6-835.3,298.2-835,209.5z"/>
			</g>
		</g>
		<g id="g22">
			<g id="g24">
				<path id="path26" class="st3" d="M-649.5,209.5c0.3-83,34-88.1,38.6-161.1l-90-1.2c-1.9,83-38.8,84.4-39.3,170.7
					c-0.4,88.1,38.1,88.7,37.7,176.8c-0.5,88.3-39,87.7-39.5,175.9s38.2,88.7,37.7,176.8s-39,87.6-39.4,175.7
					c-0.4,88.2,38.1,88.7,37.7,176.9c-0.4,79.7-35.6,89.5-39.3,155.5h93.1c5.3-70.1,38.1-76.2,38.4-158c0.3-88.8-38.3-89.1-38-177.9
					s38.9-88.4,39.1-177.2c0.3-88.7-38.3-89-38-177.8c0.3-88.8,38.9-88.4,39.1-177.2C-611.3,298.6-649.8,298.2-649.5,209.5z"/>
			</g>
		</g>
		<g id="g28">
			<g id="g30">
				<path id="path32" class="st3" d="M-464,209.5c0.3-83,34-88.1,38.6-161.1l-90-1.2c-1.9,83-38.8,84.4-39.3,170.7
					c-0.4,88.1,38.1,88.7,37.7,176.8c-0.4,88.1-39,87.6-39.4,175.7s38.1,88.7,37.7,176.9s-39,87.6-39.4,175.7
					c-0.4,88.2,38.1,88.7,37.7,176.9c-0.4,79.7-35.6,89.5-39.3,155.5h93.1c5.3-70.1,38.1-76.2,38.4-158c0.3-88.8-38.3-89.1-38-177.9
					s38.9-88.4,39.1-177.2c0.3-88.8-38.3-89.1-38-177.9s38.9-88.4,39.1-177.2C-425.8,298.6-464.3,298.2-464,209.5z"/>
			</g>
		</g>
		<g id="g34">
			<g id="g36">
				<path id="path38" class="st3" d="M-275.1,209.5c0.3-83,34-88.1,38.6-161.1l-90-1.2c-1.9,83-38.8,84.4-39.3,170.7
					c-0.4,88.1,38.1,88.7,37.7,176.8s-39,87.6-39.4,175.7c-0.4,88.2,38.1,88.7,37.7,176.9c-0.4,88.2-39,87.6-39.4,175.7
					c-0.4,88.2,38.1,88.7,37.7,176.9c-0.4,79.7-35.6,89.5-39.3,155.5h93.1c5.3-70.1,38.1-76.2,38.4-158c0.3-88.8-38.3-89.1-38-177.9
					s38.9-88.4,39.1-177.2c0.3-88.8-38.3-89.1-38-177.9c0.3-88.8,38.9-88.4,39.1-177.2C-236.8,298.6-275.4,298.2-275.1,209.5z"/>
			</g>
		</g>
		<g id="g40">
			<g id="g42">
				<path id="path44" class="st3" d="M-89.6,209.5c0.3-83,34-88.1,38.6-161.1l-90-1.2c-1.9,83-38.8,84.4-39.3,170.7
					c-0.4,88.1,38.1,88.7,37.7,176.8c-0.4,88.1-39,87.6-39.4,175.7s38.1,88.7,37.7,176.9s-39,87.6-39.4,175.7
					c-0.4,88.2,38.1,88.7,37.7,176.9c-0.4,79.7-35.6,89.5-39.3,155.5h93.1c5.3-70.1,38.1-76.2,38.4-158c0.3-88.8-38.3-89.1-38-177.9
					s38.9-88.4,39.1-177.2c0.3-88.8-38.3-89.1-38-177.9c0.3-88.8,38.9-88.4,39.1-177.2C-51.3,298.6-89.9,298.2-89.6,209.5z"/>
			</g>
		</g>
		<g id="g46">
			<g id="g48">
				<path id="path50" class="st3" d="M95.9,209.5c0.3-83,34-88.1,38.6-161.1l-90-1.2c-1.9,83-38.8,84.4-39.3,170.7
					C4.8,306,43.3,306.6,42.9,394.7s-39,87.6-39.4,175.7c-0.5,88.3,38.1,88.9,37.6,177c-0.4,88.2-39,87.6-39.4,175.7
					c-0.4,88.2,38.1,88.7,37.7,176.9c-0.4,79.7-35.6,89.5-39.3,155.5h93.1c5.3-70.1,38.1-76.2,38.4-158c0.3-88.8-38.3-89.1-38-177.9
					s38.9-88.4,39.1-177.2c0.3-88.8-38.3-89.1-38-177.9c0.3-88.8,38.9-88.4,39.1-177.2C134.2,298.6,95.6,298.2,95.9,209.5z"/>
			</g>
		</g>
		<g id="g52">
			<g id="g54">
				<path id="path56" class="st3" d="M281.4,209.5c0.3-83,34-88.1,38.6-161.1l-90-1.2c-1.9,83-38.8,84.4-39.3,170.7
					c-0.4,88.1,38.1,88.7,37.7,176.8s-39,87.6-39.4,175.7c-0.4,88.2,38.1,88.7,37.7,176.9s-39,87.6-39.4,175.7
					c-0.4,88.2,38.1,88.7,37.7,176.9c-0.4,79.7-35.6,89.5-39.3,155.5h93.1c5.3-70.1,38.1-76.2,38.4-158c0.3-88.8-38.3-89.1-38-177.9
					s38.9-88.4,39.1-177.2c0.3-88.8-38.3-89.1-38-177.9c0.3-88.8,38.9-88.4,39.1-177.2C319.7,298.6,281.1,298.2,281.4,209.5z"/>
			</g>
		</g>
	</g>
</g>
<g id="plants__x2B_" class="st0">
	<g id="g59" class="st4">
		<g id="g61">
			<path id="path63" class="st5" d="M-301.3,749.7c0,6.3-2.8,7.1-3,12.4h7.2c0.4-5.6,3-6.1,3-12.6c0-7.1-3-7.1-2.9-14.2
				c0-7.1,3-7,3-14.1s-3-7.1-2.9-14.2c0-7.1,3-7,3-14.1c0-7.1-3-7.1-2.9-14.2c0-7.1,3-7,3-14.1s-3-7.1-2.9-14.2c0-7.1,3-7,3-14.1
				l-7,0.3c0,7-3,7.6-3.1,14.6c0,7,3,7.1,2.9,14.1c0,7-3,7-3.1,14c0,7,3,7.1,2.9,14.1c0,7-3,7-3.1,14c0,7,3,7.1,2.9,14.1
				c0,7-3,7-3.1,14C-304.3,742.6-301.3,742.6-301.3,749.7z"/>
		</g>
		<g id="g65">
			<path id="path67" class="st5" d="M-289.1,749.7c0,6.3-2.8,7.1-3,12.4h7.2c0.4-5.6,3-6.1,3-12.6c0-7.1-3-7.1-2.9-14.2
				c0-7.1,3-7,3-14.1s-3-7.1-2.9-14.2c0-7.1,3-7,3-14.1c0-7.1-3-7.1-2.9-14.2c0-7.1,3-7,3-14.1s-3-7.1-2.9-14.2c0-7.1,3-7,3-14.1
				l-7,0.3c0,7-3,7.6-3.1,14.6c0,7,3,7.1,2.9,14.1c0,7-3,7-3.1,14c0,7,3,7.1,2.9,14.1c0,7-3,7-3.1,14c0,7,3,7.1,2.9,14.1
				c0,7-3,7-3.1,14C-292,742.6-289,742.6-289.1,749.7z"/>
		</g>
		<g id="g69">
			<path id="path71" class="st5" d="M-322.1,678.8c0-6.6,2.6-7,3-12.8l-7-0.1c-0.1,6.6-3,6.7-3,13.6c0,7,3,7.1,2.9,14.1
				c0,7-3,7-3.1,14c0,7,3,7.1,2.9,14.1c0,7-3,7-3.1,14c0,7,3,7.1,2.9,14.1c0,6.3-2.8,7.1-3,12.4h7.2c0.4-5.6,3-6.1,3-12.6
				c0-7.1-3-7.1-2.9-14.2c0-7.1,3-7,3-14.1s-3-7.1-2.9-14.2c0-7.1,3-7,3-14.1C-319.1,685.9-322.1,685.8-322.1,678.8z"/>
		</g>
		<g id="g73">
			<path id="path75" class="st5" d="M-272.3,650.5c0-0.2,0-0.3,0-0.5l-6.9,0.1c0,0.4,0,0.8,0,1.3c0,7,3,7.1,2.9,14.1c0,7-3,7-3.1,14
				c0,7,3,7.1,2.9,14.1c0,7-3,7-3.1,14c0,7,3,7.1,2.9,14.1c0,7-3,7-3.1,14c0,7,3,7.1,2.9,14.1c0,6.3-2.8,7.1-3,12.4h7.2
				c0.4-5.6,3-6.1,3-12.6c0-7.1-3-7.1-2.9-14.2c0-7.1,3-7,3-14.1s-3-7.1-2.9-14.2c0-7.1,3-7,3-14.1c0-7.1-3-7.1-2.9-14.2
				c0-7.1,3-7,3-14.1S-272.4,657.6-272.3,650.5z"/>
		</g>
		<g id="g77">
			<path id="path79" class="st5" d="M-259.7,678.8c0-6.3,2.4-7,2.9-12l-6.9-0.1c-0.4,5.8-3,6.2-3,12.8c0,7,3,7.1,2.9,14.1
				c0,7-3,7-3.1,14c0,7,3,7.1,2.9,14.1c0,7-3,7-3.1,14c0,7,3,7.1,2.9,14.1c0,6.3-2.8,7.1-3,12.4h7.2c0.4-5.6,3-6.1,3-12.6
				c0-7.1-3-7.1-2.9-14.2c0-7.1,3-7,3-14.1s-3-7.1-2.9-14.2c0-7.1,3-7,3-14.1S-259.8,685.8-259.7,678.8z"/>
		</g>
		<g id="g81">
			<path id="path83" class="st5" d="M-309.5,650.5L-309.5,650.5l-7,0.1c0,0.3,0,0.5,0,0.8c0,7,3,7.1,2.9,14.1c0,7-3,7-3.1,14
				c0,7,3,7.1,2.9,14.1c0,7-3,7-3.1,14c0,7,3,7.1,2.9,14.1c0,7-3,7-3.1,14c0,7,3,7.1,2.9,14.1c0,6.3-2.8,7.1-3,12.4h7.2
				c0.4-5.6,3-6.1,3-12.6c0-7.1-3-7.1-2.9-14.2c0-7.1,3-7,3-14.1s-3-7.1-2.9-14.2c0-7.1,3-7,3-14.1c0-7.1-3-7.1-2.9-14.2
				c0-7.1,3-7,3-14.1C-306.6,657.6-309.6,657.6-309.5,650.5z"/>
		</g>
	</g>
	<g id="g85" class="st4">
		<path id="path87" class="st5" d="M-180.3,753.1c0,0-7.5-34.8-17.4-29C-207.6,729.9-201.8,753.1-180.3,753.1z"/>
		<path id="path89" class="st5" d="M-175.6,739c0,0,9.9-34.2,19.3-27.7C-146.8,717.7-154.2,740.4-175.6,739z"/>
		<path id="path91" class="st5" d="M-175,715.7c0,0-15.6-25.6-21.8-18.2S-192.1,721.7-175,715.7z"/>
		<path id="path93" class="st5" d="M-182.4,694.2c0,0-0.6-28.4,8.2-25.8C-165.6,671.1-165.8,690.2-182.4,694.2z"/>
		<path id="path95" class="st5" d="M-185.7,682.6c0,0-12.2-21.5-17.6-15.6C-208.6,673-199.9,687.1-185.7,682.6z"/>
		<path id="path97" class="st5" d="M-190.2,664.6c0,0,3.4-20.7,9.4-17.6C-174.8,650.1-177.5,663.9-190.2,664.6z"/>
		<path id="path99" class="st5" d="M-192.2,649.5c0,0-2.9-17.7-8-15C-205.3,637.2-203,649-192.2,649.5z"/>
		<path id="path101" class="st5" d="M-189.9,637.9c0,0,5.7-10.9,8.5-8.1C-178.6,632.6-182.7,639.8-189.9,637.9z"/>
		<path id="path103" class="st5" d="M-191.3,764.1c0,0,26.6-24.9,8.7-66.6c-17.9-41.7-7.5-69.5-1.7-76.5c0,0-15.1,30.1,4.1,75.9
			s-6.4,66.6-6.4,66.6L-191.3,764.1z"/>
	</g>
	<polygon id="polygon105" class="st6" points="-446,748.7 -455.4,748.7 -455.4,737.5 -431.3,737.7 -431.8,716.7 -436,716.7 
		-436.2,724.2 -439.9,724.2 -440.4,719 -444.2,719 -444.2,728.5 -436.3,728.5 -436.5,732.7 -447.5,732.9 -447.8,721.5 -451.8,721.5 
		-451.8,732.8 -455.8,732.5 -455.6,718.8 -455.5,718.8 -455.5,714.6 -441.3,714.7 -441.1,704.7 -446.2,704.1 -446,709.5 
		-450.5,709.3 -450.3,697.3 -455.1,696.8 -455.1,709.5 -468.3,709.5 -468.3,705.6 -459.2,705.6 -458.9,689.3 -463.5,689.1 
		-463.3,701.1 -468.3,701.1 -468.2,691.6 -472.3,691.2 -472.9,710.4 -476.6,710.4 -476.6,700.7 -480.4,700.7 -481.5,714.5 
		-459.5,714.6 -459.5,714.6 -460,714.6 -460.5,749 -474.1,748.9 -474.3,743.2 -467.4,743.2 -467.8,722.4 -472.4,721.9 -472,738.9 
		-480.2,738.7 -480.6,730.5 -476.3,730.3 -476.7,721 -480.2,721 -480.4,726.5 -486,726.5 -486.6,721.2 -489.7,721.5 -489.7,730.5 
		-484.4,730.3 -484,743 -478.7,743 -478.5,752.3 -460,752.9 -459.9,763.6 -454.8,763.6 -455.1,753.5 -441.9,753.2 -441.9,742.3 
		-446,742.2 	"/>
	<path id="path107" class="st6" d="M-528.4,761.3c0,0-17-13.5-8.7-18.4c9-5.3,14.3,14.3,14.3,14.3s-6.5-29.9,4-30.8
		c10.6-0.9,2.5,32.1,2.5,32.1s7.5-30.2,15.6-26.8s-4.4,27.4-4.4,27.4s8.4-15.9,13.4-12.5s-4,14.9-4,14.9L-528.4,761.3z"/>
	<g id="g109" class="st4">
		<path id="path111" class="st5" d="M-239.6,732.4c8.2,13.8,3.5,22.3,4.5,28.7h17.8c19.5-28.4-7-40.7-7-40.7
			c10.4,29.8,0.9,36.8-1.1,40.4c7.8-25.5-5.2-36.8-8.6-42.9c-5.2-9.1,2.4-25.4,2.4-25.4S-258.2,701.2-239.6,732.4z"/>
		<path id="path113" class="st5" d="M-235.2,761.1c0,0-7.5-9.4-4.2-20.7c0,0-10.7,5.8-4.9,20.7H-235.2z"/>
	</g>
	<g id="g115" class="st4">
		<path id="path117" class="st5" d="M-399.9,762.8c0,0-14-33.2,0-63.8c12.7-27.9,1.9-46.2,1.9-46.2s13.7,15.5,0.2,48.3
			s3.1,61.4,3.1,61.4L-399.9,762.8z"/>
		<path id="path119" class="st5" d="M-401.9,749.4c0,0-12.8-29-20.4-22.1C-429.8,734.1-420.6,753.2-401.9,749.4z"/>
		<path id="path121" class="st5" d="M-403.8,729.3c0,0,11.7-26.5,18.6-20.3C-378.3,715.2-386.7,732.8-403.8,729.3z"/>
		<path id="path123" class="st5" d="M-403.2,711.3c0,0-10.4-23.4-16.5-17.9C-425.8,698.9-418.3,714.4-403.2,711.3z"/>
		<path id="path125" class="st5" d="M-397.6,696.9c0,0,13.2-18.6,17.5-12.7C-375.8,690.1-384.9,702.3-397.6,696.9z"/>
		<path id="path127" class="st5" d="M-394.2,684.4c0,0-10.4-14.7-13.9-10C-411.5,679-404.2,688.6-394.2,684.4z"/>
		<path id="path129" class="st5" d="M-393.2,674.3c0,0,7.8-11,10.4-7.5C-380.3,670.3-385.7,677.5-393.2,674.3z"/>
		<path id="path131" class="st5" d="M-393.4,666.2c0,0-5.2-7.3-6.9-5C-402,663.5-398.4,668.3-393.4,666.2z"/>
	</g>
	<path id="path133" class="st6" d="M-348.1,762.3c0,0,17-13.6,8.7-18.4c-9.1-5.3-14.4,14.4-14.4,14.4s6.6-30-4.1-30.9
		c-10.6-0.9-2.5,32.2-2.5,32.2s-7.5-30.3-15.6-26.9c-8.1,3.4,4.4,27.5,4.4,27.5s-8.4-15.9-13.4-12.5s4.1,15,4.1,15L-348.1,762.3z"/>
</g>
<path class="st7" d="M142.2,306.8c0.3-17.8-0.4-35.6-2-53.4"/>
<path class="st8" d="M40.6,296.3c23.6,8.5,26.2-15.2,26.2-15.2S44.8,272.8,40.6,296.3z"/>
<path class="st7" d="M40.7,308.5c0.3-20.7-0.4-41.3-2.3-61.9"/>
<path class="st8" d="M-79.4,293.5c-19.7,7-21.8-12.7-21.8-12.7S-82.9,273.9-79.4,293.5z"/>
<path class="st7" d="M-79.2,303.1c-1.2-17.2-1.6-34.4-1-51.6"/>
<path class="st8" d="M142.2,296.3c20.4,7.3,22.6-13.2,22.6-13.2S145.7,276,142.2,296.3z"/>
<path class="st9" d="M145.4,252.2c0,0,23.7,13.4,9.9,21.7c-13.7,8.3-14.7-19.2-14.7-19.2L145.4,252.2z"/>
<path class="st9" d="M135.7,246.4c0,0-23.7-13.4-9.9-21.7s14.7,19.2,14.7,19.2L135.7,246.4z"/>
<path class="st9" d="M140.8,243.7c0,0,0.6-27.2,14.4-19c13.8,8.2-10,22.1-10,22.1L140.8,243.7z"/>
<path class="st9" d="M140.3,255c0,0-0.6,27.2-14.4,19c-13.8-8.2,10-22.1,10-22.1L140.3,255z"/>
<path class="st9" d="M145.4,246.5c0,0,23.2-14.2,23.8,1.8c0.6,16-24,3.5-24,3.5L145.4,246.5z"/>
<path class="st9" d="M135.7,252.2c0,0-23.2,14.2-23.8-1.8s24-3.5,24-3.5L135.7,252.2z"/>
<circle class="st10" cx="140.5" cy="249.2" r="14.7"/>
<path class="st11" d="M44.4,245.2c0,0,27.4,15.5,11.5,25.1s-17-22.3-17-22.3L44.4,245.2z"/>
<path class="st11" d="M33.2,238.5c0,0-27.4-15.5-11.5-25.1s17,22.3,17,22.3L33.2,238.5z"/>
<path class="st11" d="M39.1,235.3c0,0,0.7-31.5,16.7-22c16,9.5-11.6,25.6-11.6,25.6L39.1,235.3z"/>
<path class="st11" d="M38.5,248.4c0,0-0.7,31.5-16.7,22s11.6-25.6,11.6-25.6L38.5,248.4z"/>
<path class="st11" d="M44.4,238.5c0,0,26.9-16.5,27.6,2.1c0.7,18.6-27.8,4.1-27.8,4.1L44.4,238.5z"/>
<path class="st11" d="M33.2,245.2c0,0-26.9,16.5-27.6-2.1s27.8-4.1,27.8-4.1L33.2,245.2z"/>
<circle class="st10" cx="38.7" cy="241.7" r="17"/>
<path class="st12" d="M-75.9,250.4c0,0,22.8,12.9,9.6,20.9s-14.2-18.6-14.2-18.6L-75.9,250.4z"/>
<path class="st12" d="M-85.3,244.8c0,0-22.8-12.9-9.6-20.9c13.3-8,14.2,18.6,14.2,18.6L-85.3,244.8z"/>
<path class="st12" d="M-80.3,242.1c0,0,0.6-26.2,13.9-18.4c13.3,7.9-9.6,21.3-9.6,21.3L-80.3,242.1z"/>
<path class="st12" d="M-80.8,253c0,0-0.6,26.2-13.9,18.4s9.6-21.3,9.6-21.3L-80.8,253z"/>
<path class="st12" d="M-75.9,244.8c0,0,22.4-13.7,22.9,1.7s-23.1,3.4-23.1,3.4L-75.9,244.8z"/>
<path class="st12" d="M-85.3,250.3c0,0-22.4,13.7-22.9-1.7c-0.6-15.5,23.1-3.4,23.1-3.4L-85.3,250.3z"/>
<circle class="st10" cx="-80.7" cy="247.4" r="14.2"/>
<path class="st13" d="M-87.3,301.5h15.9C-71.4,301.5-79.6,293.7-87.3,301.5z"/>
<path class="st13" d="M134.8,305.1h16.5C151.3,305.1,142.8,297.1,134.8,305.1z"/>
<path class="st13" d="M32.4,306.5h19.1C51.6,306.5,41.7,297.3,32.4,306.5z"/>
<polygon class="st14" points="120.5,304.4 163.8,304.4 163.1,316.2 158,316.2 157.1,343.3 127.3,343.3 125.8,316.3 121,316.4 "/>
<line class="st15" x1="125.8" y1="316.3" x2="158" y2="316.2"/>
<polygon class="st14" points="15.6,305.7 65.7,305.7 65,319.4 59,319.4 57.9,350.8 23.4,350.8 21.6,319.5 16.1,319.7 "/>
<line class="st15" x1="21.6" y1="319.5" x2="59" y2="319.4"/>
<polygon class="st14" points="-99.9,300.7 -58.2,300.7 -58.8,312.2 -63.8,312.2 -64.6,338.3 -93.4,338.3 -94.9,312.2 -99.4,312.4 
	"/>
<line class="st15" x1="-94.9" y1="312.2" x2="-63.8" y2="312.2"/>
</svg>
